Coordinates
version=1
nRows=29
nColumns=24
inDegrees=yes

Units are S.I. units (second, meters, Newtons, ...)
Angles are in degrees.

endheader
time	pelvis_tilt	pelvis_list	pelvis_rotation	pelvis_tx	pelvis_ty	pelvis_tz	hip_flexion_r	hip_adduction_r	hip_rotation_r	knee_angle_r	ankle_angle_r	subtalar_angle_r	mtp_angle_r	hip_flexion_l	hip_adduction_l	hip_rotation_l	knee_angle_l	ankle_angle_l	subtalar_angle_l	mtp_angle_l	lumbar_extension	lumbar_bending	lumbar_rotation
      5.18000000	     -8.01815001	     -6.77234237	      3.71813454	     -1.35789212	      0.00222876	     -0.26289854	     10.03152277	     11.91508571	      7.34715774	     -8.76282143	     16.82930414	      5.01397482	    -48.87734389	     26.42906962	     -9.25163141	     -0.08449652	    -63.60000005	    -14.47244785	     -6.53266869	     23.01159537	      8.08734890	      6.38329454	      0.85924051
      5.18500000	     -8.05043811	     -6.54432055	      3.49373885	     -1.35309984	      0.00255201	     -0.26239241	      9.53581434	     11.72960674	      7.54779114	     -8.45436938	     16.97470011	      5.14028766	    -48.78776788	     26.97965056	     -8.99740335	     -0.34081236	    -63.13953262	    -13.88907889	     -6.45498666	     23.22629311	      8.03511730	      6.17113464	      1.21774900
      5.19000000	     -8.03464642	     -6.35495893	      3.20038648	     -1.34841606	      0.00285483	     -0.26183695	      9.00614541	     11.59346601	      7.78864234	     -8.16976005	     17.10712369	      5.32176711	    -48.69078852	     27.45356746	     -8.82086806	     -0.63922169	    -62.61870821	    -13.26530910	     -6.32169828	     23.50862248	      7.89886856	      6.02569445	      1.67058117
      5.19500000	     -8.03207044	     -6.16031566	      2.95624551	     -1.34370758	      0.00310287	     -0.26135086	      8.48411446	     11.43557283	      7.97201872	     -7.86243234	     17.25554905	      5.49419205	    -48.60528176	     27.93277990	     -8.61150814	     -0.89041269	    -62.02747830	    -12.69311681	     -6.17369063	     23.78758382	      7.79316664	      5.86074434	      2.05300386
      5.20000000	     -8.02825141	     -5.97567140	      2.71895997	     -1.33903267	      0.00329814	     -0.26088722	      7.96909180	     11.28246507	      8.12999934	     -7.55956095	     17.41513606	      5.67707340	    -48.52915799	     28.39683170	     -8.40600444	     -1.12008917	    -61.37133738	    -12.14217258	     -6.00537043	     24.06898682	      7.68657680	      5.70606371	      2.42222668
      5.20500000	     -8.01614726	     -5.80250378	      2.48468353	     -1.33436420	      0.00344482	     -0.26044540	      7.44944182	     11.13797481	      8.27239434	     -7.25869010	     17.57965948	      5.85759035	    -48.46041223	     28.83412064	     -8.21074206	     -1.33755332	    -60.65257659	    -11.61191175	     -5.82090752	     24.35001189	      7.57020172	      5.56603213	      2.78731467
      5.21000000	     -8.01203901	     -5.63825990	      2.26472910	     -1.32971878	      0.00351856	     -0.26005424	      6.94741104	     10.99637944	      8.41619187	     -6.96804925	     17.76180709	      6.02241363	    -48.39736521	     29.26813545	     -8.00853852	     -1.52150295	    -59.87692507	    -11.10684118	     -5.63513808	     24.59832241	      7.46246151	      5.43314381	      3.12375792
      5.21500000	     -8.02916901	     -5.47547855	      2.07151521	     -1.32505115	      0.00352402	     -0.25970672	      6.47115957	     10.85158242	      8.52461318	     -6.67548589	     17.94433812	      6.14202582	    -48.34264289	     29.71166211	     -7.79182630	     -1.67498042	    -59.04139298	    -10.64874308	     -5.44841380	     24.79193960	      7.39036589	      5.29693841	      3.44277082
      5.22000000	     -7.97235200	     -5.34194586	      1.80226085	     -1.32045788	      0.00354810	     -0.25930184	      5.93372421	     10.74740638	      8.72235205	     -6.42163580	     18.11626229	      6.29244502	    -48.28985443	     30.03549260	     -7.64945028	     -1.87284279	    -58.14039126	    -10.14526486	     -5.22841483	     25.01505757	      7.21018809	      5.21172715	      3.81999890
      5.22500000	     -7.94645050	     -5.20277803	      1.57623869	     -1.31582545	      0.00349087	     -0.25897373	      5.43016728	     10.62868494	      8.91118666	     -6.16527177	     18.29683386	      6.36800765	    -48.23749687	     30.37994014	     -7.47037333	     -2.01946552	    -57.18117935	     -9.70264080	     -5.03805821	     25.16003240	      7.08152019	      5.11356992	      4.14653564
      5.23000000	     -7.93071392	     -5.07279857	      1.35248163	     -1.31117937	      0.00336385	     -0.25865571	      4.94376081	     10.51904797	      9.11607152	     -5.92113011	     18.48811538	      6.41129489	    -48.18076425	     30.71597357	     -7.29920585	     -2.15035197	    -56.17005659	     -9.28025860	     -4.85312185	     25.25129779	      6.96839823	      5.02023845	      4.47364757
      5.23500000	     -7.85110993	     -4.96134004	      1.08513990	     -1.30658678	      0.00328759	     -0.25830151	      4.39646666	     10.43632864	      9.39240270	     -5.68611129	     18.60549694	      6.37634939	    -48.13140555	     30.95028926	     -7.17511779	     -2.30311267	    -55.09689170	     -8.86613386	     -4.66285477	     25.25416012	      6.76913287	      4.96048280	      4.87743715
      5.24000000	     -7.90409943	     -4.86323776	      0.92439015	     -1.30194275	      0.00298414	     -0.25814867	      4.00799693	     10.34557203	      9.54490787	     -5.47225787	     18.80393751	      6.36529678	    -48.06826554	     31.34325723	     -6.98099163	     -2.31265019	    -53.99111443	     -8.53837863	     -4.54555465	     25.24336902	      6.74363501	      4.90399750	      5.13679654
      5.24500000	     -7.77070013	     -4.75237327	      0.56930738	     -1.29737138	      0.00290240	     -0.25774176	      3.41771702	     10.26737325	     10.01888651	     -5.28208042	     18.89125129	      6.22907600	    -47.98700849	     31.44085502	     -6.90949430	     -2.52887455	    -52.79708503	     -8.09553559	     -4.34451174	     25.03504988	      6.46827062	      4.86254936	      5.59860569
      5.25000000	     -7.73446871	     -4.64821795	      0.29943284	     -1.29275656	      0.00265717	     -0.25746411	      2.93766306	     10.18180915	     10.43355549	     -5.09327192	     18.98974324	      6.04141841	    -47.85399847	     31.64776038	     -6.78306585	     -2.63125395	    -51.56781408	     -7.70871365	     -4.18470433	     24.72280623	      6.32477393	      4.81011758	      5.95484085
      5.25500000	     -7.70831341	     -4.56311564	      0.02893029	     -1.28815428	      0.00236478	     -0.25720160	      2.48202602	     10.11447486	     10.84120164	     -4.92731629	     19.07431266	      5.84837567	    -47.67795931	     31.84541995	     -6.67487345	     -2.70570859	    -50.29340704	     -7.34452780	     -4.04665472	     24.32633510	      6.19031020	      4.77755570	      6.31326124
      5.26000000	     -7.68860088	     -4.48336513	     -0.24765250	     -1.28356575	      0.00203827	     -0.25696090	      2.04412195	     10.04926418	     11.26344811	     -4.78011886	     19.14574603	      5.64002056	    -47.46200616	     32.02357812	     -6.57537821	     -2.76977057	    -48.96850193	     -6.99459060	     -3.92636385	     23.83492048	      6.06074907	      4.75367623	      6.67278148
      5.26500000	     -7.77240020	     -4.41740854	     -0.43981609	     -1.27898160	      0.00155974	     -0.25683195	      1.75480490	      9.99307935	     11.46914904	     -4.68789909	     19.31832392	      5.55654479	    -47.34316251	     32.30991377	     -6.43103410	     -2.68202869	    -47.58168548	     -6.77110933	     -3.83895613	     23.59942868	      6.05144320	      4.72902156	      6.90945555
      5.27000000	     -7.66268065	     -4.35513388	     -0.79591544	     -1.27442623	      0.00129050	     -0.25656307	      1.21915064	      9.94096516	     12.07566294	     -4.54886022	     19.30788487	      5.24012261	    -47.06671486	     32.32011281	     -6.41000319	     -2.84306947	    -46.17093227	     -6.37437555	     -3.77253756	     22.68854609	      5.80554607	      4.74908283	      7.38715915
      5.27500000	     -7.78180487	     -4.28685636	     -0.97637531	     -1.26983077	      0.00072971	     -0.25642454	      0.98485884	      9.88243785	     12.27703889	     -4.48939314	     19.48265475	      5.14501591	    -46.92677792	     32.58826888	     -6.26977939	     -2.70993585	    -44.68243298	     -6.18691290	     -3.67026087	     22.37281304	      5.84075805	      4.70547868	      7.60168622
      5.28000000	     -7.68479724	     -4.23375007	     -1.26454803	     -1.26517956	      0.00039082	     -0.25624470	      0.43394938	      9.82628451	     12.93608033	     -4.28993036	     19.30876325	      4.64787759	    -46.39084889	     32.57380473	     -6.22427463	     -2.77657691	    -43.23536506	     -5.57449292	     -3.39781743	     20.77859678	      5.62962117	      4.71444329	      7.96696223
      5.28500000	     -7.82617008	     -4.17658281	     -1.54048032	     -1.26061413	     -0.00022769	     -0.25606922	      0.25189916	      9.77692319	     13.18417082	     -4.29567027	     19.50885119	      4.65129026	    -46.17864545	     32.79789171	     -6.16876179	     -2.76654336	    -41.65671218	     -5.44267752	     -3.47748756	     20.36916331	      5.67698059	      4.71067458	      8.28683937
      5.29000000	     -7.81790140	     -4.13300311	     -1.83281402	     -1.25611053	     -0.00069664	     -0.25590684	     -0.10846972	      9.73621278	     13.54777901	     -4.26130029	     19.57859699	      4.49354674	    -45.85353501	     32.83203468	     -6.13375724	     -2.75060740	    -40.07215743	     -5.14817039	     -3.48065620	     19.40819826	      5.53160167	      4.72839422	      8.70086060
      5.29500000	     -7.86333580	     -4.08504084	     -2.01570660	     -1.25146824	     -0.00125854	     -0.25585355	     -0.44478437	      9.67826360	     13.90039371	     -4.16022492	     19.53560970	      4.25136330	    -45.32344893	     32.92321034	     -6.04853053	     -2.63611738	    -38.50432102	     -4.60804301	     -3.15918894	     18.02523145	      5.48336063	      4.71533949	      8.91564550
      5.30000000	     -8.02059783	     -4.03856779	     -2.24489110	     -1.24687052	     -0.00192971	     -0.25574420	     -0.60301585	      9.63392916	     14.08278090	     -4.17148999	     19.73372459	      4.26652849	    -45.17306100	     33.09380395	     -6.00491774	     -2.55416004	    -36.80754508	     -4.51900928	     -3.21589339	     17.66710396	      5.55342053	      4.71385497	      9.18895882
      5.30500000	     -8.11152422	     -3.96477964	     -2.48389221	     -1.24226943	     -0.00252331	     -0.25565032	     -0.83498707	      9.55279847	     14.29122611	     -4.17723484	     19.92160828	      4.26850689	    -45.00867882	     33.15507984	     -5.94356936	     -2.49103614	    -35.07714579	     -4.35007080	     -3.23522452	     17.07991762	      5.54120789	      4.68634062	      9.48841773
      5.31000000	     -8.10219412	     -3.93350838	     -2.69465997	     -1.23771761	     -0.00303392	     -0.25562717	     -1.17317258	      9.50812641	     14.47673884	     -4.17887042	     20.03388980	      4.25363964	    -44.74936597	     33.10429700	     -5.90323057	     -2.35671280	    -33.38192927	     -3.92121678	     -3.09274085	     15.87950341	      5.40491814	      4.69761919	      9.81422020
      5.31500000	     -8.24231700	     -3.87785102	     -2.88032864	     -1.23306658	     -0.00372148	     -0.25559793	     -1.33814366	      9.44610463	     14.59458507	     -4.20989510	     20.22232414	      4.29819369	    -44.53243279	     33.19477400	     -5.84660351	     -2.21167184	    -31.64388193	     -3.58745762	     -2.93347294	     15.06234109	      5.45981276	      4.67525878	     10.04987113
      5.32000000	     -8.35143394	     -3.81593758	     -3.04311808	     -1.22834674	     -0.00439117	     -0.25558149	     -1.54249878	      9.37480498	     14.66037136	     -4.23240425	     20.43395145	      4.36249775	    -44.37858240	     33.22234584	     -5.78407086	     -2.06786245	    -29.86353529	     -3.28310810	     -2.78870852	     14.46228816	      5.49331605	      4.63505344	     10.25218095
